<?xml version="1.0" encoding="UTF-8"?>
<svg width="149px" height="30px" viewBox="0 0 149 30" version="1.1" xmlns="http://www.w3.org/2000/svg" xmlns:xlink="http://www.w3.org/1999/xlink">
    <!-- Generator: Sketch 53.2 (72643) - https://sketchapp.com -->
    <title>Artboard</title>
    <desc>Created with Sketch.</desc>
    <g id="Artboard" stroke="none" stroke-width="1" fill="none" fill-rule="evenodd">
        <g id="test" fill="#FFFFFF" fill-rule="nonzero">
            <polygon id="Path" points="12.9961219 12 4.3867036 12 4.3867036 4.41666667 0 4.41666667 0 23.6666667 4.3867036 23.6666667 4.3867036 15.7916667 12.9961219 15.7916667 12.9961219 23.6666667 17.3828255 23.6666667 17.3828255 4.41666667 12.9961219 4.41666667"></polygon>
            <polygon id="Path" points="80.8875346 4.41666667 76.0088643 4.41666667 67.6044321 13.4166667 67.6044321 4.41666667 63.2587258 4.41666667 63.2587258 23.6666667 67.6044321 23.6666667 67.6044321 18.7916667 70.1462604 16.125 76.2138504 23.6666667 81.3385042 23.6666667 73.0160665 13"></polygon>
            <path d="M49.1966759,8.66666667 C50.1396122,8.125 51.2465374,7.875 52.3534626,7.875 C54.198338,7.83333333 55.9612188,8.66666667 57.1091413,10.125 L59.8969529,7.45833333 C58.9950139,6.375 57.8470914,5.5 56.5761773,4.91666667 C53.4193906,3.625 49.8936288,3.79166667 46.8598338,5.33333333 C45.3429363,6.16666667 44.0720222,7.375 43.1700831,8.875 C41.4072022,12.0416667 41.4072022,15.9583333 43.1700831,19.125 C44.0720222,20.625 45.3429363,21.8333333 46.8598338,22.6666667 C48.4587258,23.5416667 50.2626039,23.9583333 52.066482,23.9583333 C53.5833795,24 55.100277,23.6666667 56.5351801,23.0833333 C57.8470914,22.5 58.9950139,21.625 59.8969529,20.5416667 L57.068144,17.9166667 C55.9202216,19.375 54.1573407,20.2083333 52.3124654,20.2083333 C51.2055402,20.2083333 50.1396122,19.9583333 49.1966759,19.4166667 C48.2947368,18.9166667 47.5567867,18.1666667 47.0648199,17.25 C46.0398892,15.25 46.0398892,12.875 47.0648199,10.875 C47.5567867,9.95833333 48.2947368,9.20833333 49.1966759,8.66666667 Z" id="Path"></path>
            <path d="M104.952909,13.6666667 C106.510803,12.875 107.494737,11.2083333 107.45374,9.41666667 C107.494737,7.95833333 106.797784,6.58333333 105.608864,5.75 C104.378947,4.875 102.616066,4.41666667 100.279224,4.41666667 L91.0548476,4.41666667 L91.0548476,23.6666667 L100.853186,23.6666667 C103.313019,23.6666667 105.198892,23.2083333 106.510803,22.2916667 C107.781717,21.4166667 108.519668,19.9583333 108.437673,18.4166667 C108.47867,17.3333333 108.150693,16.2916667 107.535734,15.4166667 C106.838781,14.5833333 105.977839,13.9583333 104.952909,13.6666667 Z M95.400554,7.79166667 L99.7462604,7.79166667 C100.607202,7.75 101.468144,7.91666667 102.206094,8.375 C102.739058,8.75 103.067036,9.375 103.026039,10.0833333 C103.067036,10.75 102.739058,11.4166667 102.206094,11.7916667 C101.468144,12.2083333 100.607202,12.4166667 99.7462604,12.375 L95.400554,12.375 L95.400554,7.79166667 Z M103.108033,19.75 C102.288089,20.1666667 101.38615,20.375 100.484211,20.3333333 L95.400554,20.3333333 L95.400554,15.5416667 L100.525208,15.5416667 C102.86205,15.5416667 104.009972,16.3333333 104.009972,17.9166667 C104.05097,18.6666667 103.722992,19.3333333 103.108033,19.75 L103.108033,19.75 Z" id="Shape"></path>
            <path d="M118.195014,4.41666667 L109.749584,23.6666667 L114.25928,23.6666667 L115.940166,19.5416667 L124.754571,19.5416667 L126.435457,23.6666667 L131.027147,23.6666667 L122.54072,4.41666667 L118.195014,4.41666667 Z M117.334072,16.1666667 L120.32687,8.79166667 L123.319668,16.1666667 L117.334072,16.1666667 Z" id="Shape"></path>
            <polygon id="Path" points="143.695291 4.41666667 138.652632 12.9583333 133.568975 4.41666667 128.936288 4.41666667 136.274792 16.7916667 136.274792 23.6666667 140.620499 23.6666667 140.620499 16.875 148 4.41666667"></polygon>
            <path d="M28.4930748,4.41666667 L20.0476454,23.6666667 L24.5573407,23.6666667 L26.2382271,19.5416667 L35.0116343,19.5416667 L36.6925208,23.6666667 L41.2842105,23.6666667 L32.8387812,4.41666667 L28.4930748,4.41666667 Z M27.632133,16.1666667 L30.6249307,8.79166667 L33.6177285,16.1666667 L27.632133,16.1666667 Z" id="Shape"></path>
            <rect id="Rectangle" x="85.0692521" y="0" width="1.6398892" height="30"></rect>
            <path d="M129.715235,29.625 C130.740166,28.7083333 131.314127,28.1666667 131.314127,27.6666667 C131.314127,27.3333333 131.109141,27.0833333 130.658172,27.0833333 C130.371191,27.0833333 130.125208,27.25 129.920222,27.4583333 L129.633241,27.1666667 C129.920222,26.875 130.289197,26.6666667 130.699169,26.7083333 C131.232133,26.6666667 131.683102,27.0416667 131.7241,27.5416667 C131.7241,27.5833333 131.7241,27.625 131.7241,27.6666667 C131.7241,28.25 131.150139,28.8333333 130.371191,29.5416667 C130.576177,29.5416667 130.781163,29.5 130.945152,29.5 L131.888089,29.5 L131.888089,29.9166667 L129.633241,29.9166667 L129.715235,29.625 Z" id="Path"></path>
            <path d="M132.667036,28.2916667 C132.667036,27.2083333 133.118006,26.6666667 133.814958,26.6666667 C134.511911,26.6666667 134.962881,27.25 134.962881,28.2916667 C134.962881,29.3333333 134.511911,29.9583333 133.814958,29.9583333 C133.118006,29.9583333 132.667036,29.375 132.667036,28.2916667 Z M134.511911,28.2916667 C134.511911,27.4166667 134.224931,27.0416667 133.814958,27.0416667 C133.404986,27.0416667 133.118006,27.375 133.118006,28.2916667 C133.118006,29.2083333 133.404986,29.5416667 133.814958,29.5416667 C134.224931,29.5416667 134.511911,29.2083333 134.511911,28.2916667 Z" id="Shape"></path>
            <path d="M135.741828,29.5 L136.643767,29.5 L136.643767,27.2916667 L135.946814,27.2916667 L135.946814,26.9583333 C136.233795,26.9166667 136.520776,26.8333333 136.766759,26.7083333 L137.135734,26.7083333 L137.135734,29.5 L137.914681,29.5 L137.914681,29.9166667 L135.741828,29.9166667 L135.741828,29.5 Z" id="Path"></path>
            <path d="M138.611634,29.625 L138.857618,29.3333333 C139.021607,29.5 139.226593,29.5833333 139.472576,29.5833333 C139.964543,29.5833333 140.374515,29.25 140.374515,28.25 C140.374515,27.4583333 140.087535,27.0833333 139.636565,27.0833333 C139.308587,27.0833333 139.021607,27.3333333 139.021607,27.6666667 C139.021607,27.7083333 139.021607,27.7083333 139.021607,27.75 C138.980609,28.0416667 139.185596,28.3333333 139.472576,28.375 C139.513573,28.375 139.595568,28.375 139.636565,28.375 C139.923546,28.375 140.210526,28.2083333 140.415512,27.9583333 L140.415512,28.3333333 C140.169529,28.5833333 139.882548,28.75 139.554571,28.75 C139.062604,28.7916667 138.611634,28.4166667 138.570637,27.9166667 C138.570637,27.875 138.570637,27.7916667 138.570637,27.75 C138.570637,27.1666667 139.021607,26.7083333 139.595568,26.7083333 C139.595568,26.7083333 139.636565,26.7083333 139.636565,26.7083333 C140.292521,26.7083333 140.866482,27.2083333 140.866482,28.25 C140.866482,29.5 140.210526,30 139.554571,30 C139.185596,30 138.857618,29.875 138.611634,29.625 Z" id="Path"></path>
        </g>
    </g>
</svg>